<svg xmlns="http://www.w3.org/2000/svg" xmlns:xlink="http://www.w3.org/1999/xlink" width="1080" zoomAndPan="magnify" viewBox="0 0 810 809.999993" height="1080" preserveAspectRatio="xMidYMid meet" version="1.0"><path fill="#343a6e" d="M 810.003906 405 C 810.003906 628.667969 628.671875 810 405 810 C 181.324219 810 0 628.667969 0 405 C 0 181.320312 181.324219 -0.00390625 405 -0.00390625 C 628.671875 -0.00390625 810.003906 181.320312 810.003906 405 Z M 810.003906 405 " fill-opacity="1" fill-rule="nonzero"/><path fill="#484b7f" d="M 746.574219 341.578125 C 746.574219 530.21875 593.648438 683.144531 405 683.144531 C 216.355469 683.144531 63.429688 530.21875 63.429688 341.578125 C 63.429688 152.925781 216.355469 -0.00390625 405 -0.00390625 C 593.648438 -0.00390625 746.574219 152.925781 746.574219 341.578125 Z M 746.574219 341.578125 " fill-opacity="1" fill-rule="nonzero"/><path fill="#ef487d" d="M 583.382812 245.011719 C 583.382812 380.332031 473.683594 490.03125 338.367188 490.03125 C 203.046875 490.03125 93.347656 380.332031 93.347656 245.011719 C 93.347656 109.695312 203.046875 -0.00390625 338.367188 -0.00390625 C 473.683594 -0.00390625 583.382812 109.695312 583.382812 245.011719 Z M 583.382812 245.011719 " fill-opacity="1" fill-rule="nonzero"/><path fill="#ff668c" d="M 338.367188 453.664062 C 223.316406 453.664062 129.714844 360.0625 129.714844 245.011719 C 129.714844 129.964844 223.316406 36.363281 338.367188 36.363281 C 453.414062 36.363281 547.011719 129.964844 547.011719 245.011719 C 547.011719 360.0625 453.414062 453.664062 338.367188 453.664062 Z M 338.367188 453.664062 " fill-opacity="1" fill-rule="nonzero"/><path fill="#f9d5a9" d="M 639.039062 559.515625 L 639.039062 712.035156 C 639.039062 720.453125 638.429688 728.734375 637.207031 736.847656 C 571.460938 782.964844 491.402344 810 405 810 C 319.070312 810 239.414062 783.25 173.867188 737.609375 C 171.929688 724.101562 170.941406 710.433594 170.941406 696.664062 L 170.941406 528.648438 C 170.941406 515.917969 176.101562 504.394531 184.453125 496.050781 C 186.546875 493.949219 188.847656 492.046875 191.3125 490.394531 C 198.648438 485.453125 207.511719 482.5625 217.027344 482.5625 C 242.488281 482.5625 263.121094 503.1875 263.121094 528.648438 L 263.121094 490.03125 C 263.121094 477.300781 268.273438 465.800781 276.625 457.449219 C 284.972656 449.105469 296.492188 443.945312 309.222656 443.945312 C 334.660156 443.945312 355.308594 464.59375 355.308594 490.03125 L 355.308594 474.359375 C 355.308594 461.628906 360.46875 450.109375 368.796875 441.761719 C 377.144531 433.433594 388.671875 428.273438 401.394531 428.273438 C 426.855469 428.273438 447.480469 448.90625 447.480469 474.359375 L 447.480469 275.515625 C 447.480469 262.785156 452.640625 251.269531 460.976562 242.933594 C 463.070312 240.832031 465.371094 238.929688 467.851562 237.261719 C 475.503906 232.101562 484.789062 229.175781 494.777344 229.445312 C 519.921875 230.09375 539.660156 251.390625 539.660156 276.550781 L 539.660156 600.78125 C 539.660156 576.007812 548.726562 553.359375 563.730469 535.957031 C 565.34375 534.070312 567.011719 532.265625 568.765625 530.519531 L 569.316406 529.96875 C 595.183594 504.492188 639.039062 523.1875 639.039062 559.515625 Z M 639.039062 559.515625 " fill-opacity="1" fill-rule="nonzero"/><path fill="#e5a379" d="M 467.851562 237.261719 L 467.851562 569.9375 C 467.851562 575.5625 463.292969 580.117188 457.667969 580.117188 C 452.046875 580.117188 447.488281 575.5625 447.488281 569.9375 L 447.488281 275.507812 C 447.488281 262.785156 452.640625 251.269531 460.976562 242.925781 C 463.078125 240.832031 465.371094 238.929688 467.851562 237.261719 Z M 467.851562 237.261719 " fill-opacity="1" fill-rule="nonzero"/><path fill="#e5a379" d="M 375.679688 436.105469 L 375.679688 588.648438 C 375.679688 594.269531 371.121094 598.835938 365.496094 598.835938 C 359.875 598.835938 355.308594 594.269531 355.308594 588.648438 L 355.308594 474.359375 C 355.308594 461.628906 360.46875 450.101562 368.804688 441.777344 C 370.90625 439.675781 373.199219 437.773438 375.679688 436.105469 Z M 375.679688 436.105469 " fill-opacity="1" fill-rule="nonzero"/><path fill="#e5a379" d="M 283.492188 451.78125 L 283.492188 600.226562 C 283.492188 605.851562 278.925781 610.40625 273.300781 610.40625 C 267.679688 610.40625 263.121094 605.851562 263.121094 600.226562 L 263.121094 490.03125 C 263.121094 477.300781 268.28125 465.777344 276.609375 457.449219 C 278.710938 455.347656 281.003906 453.449219 283.492188 451.78125 Z M 283.492188 451.78125 " fill-opacity="1" fill-rule="nonzero"/><path fill="#e5a379" d="M 191.3125 490.394531 L 191.3125 749.105469 C 185.386719 745.414062 179.570312 741.574219 173.867188 737.609375 C 171.929688 724.101562 170.941406 710.433594 170.941406 696.664062 L 170.941406 528.648438 C 170.941406 515.917969 176.101562 504.394531 184.453125 496.050781 C 186.546875 493.949219 188.847656 492.046875 191.3125 490.394531 Z M 191.3125 490.394531 " fill-opacity="1" fill-rule="nonzero"/><path fill="#e5a379" d="M 563.730469 535.957031 L 563.730469 699.203125 C 563.730469 705.855469 558.347656 711.238281 551.695312 711.238281 C 545.050781 711.238281 539.660156 705.855469 539.660156 699.203125 L 539.660156 600.78125 C 539.660156 576 548.734375 553.359375 563.730469 535.957031 Z M 563.730469 535.957031 " fill-opacity="1" fill-rule="nonzero"/><path fill="#ffffff" d="M 427.671875 293.800781 L 378.890625 245.011719 L 427.671875 196.230469 C 432.363281 191.539062 432.363281 183.9375 427.671875 179.257812 L 404.128906 155.703125 C 399.441406 151.015625 391.839844 151.015625 387.148438 155.703125 L 338.367188 204.488281 L 289.578125 155.703125 C 284.890625 151.015625 277.289062 151.015625 272.597656 155.703125 L 249.0625 179.242188 C 244.371094 183.929688 244.371094 191.539062 249.0625 196.230469 L 297.84375 245.011719 L 249.0625 293.792969 C 244.371094 298.480469 244.371094 306.082031 249.0625 310.773438 L 272.597656 334.324219 C 277.289062 339.003906 284.898438 339.003906 289.578125 334.324219 L 338.367188 285.535156 L 387.148438 334.324219 C 391.839844 339.003906 399.449219 339.003906 404.128906 334.324219 L 427.671875 310.78125 C 432.363281 306.089844 432.363281 298.488281 427.671875 293.800781 Z M 427.671875 293.800781 " fill-opacity="1" fill-rule="nonzero"/></svg>