<svg xmlns="http://www.w3.org/2000/svg" xmlns:xlink="http://www.w3.org/1999/xlink" width="1080" zoomAndPan="magnify" viewBox="0 0 810 809.999993" height="1080" preserveAspectRatio="xMidYMid meet" version="1.0"><defs><clipPath id="a6232a8e95"><path d="M 7.371094 381 L 440.421875 381 L 440.421875 809.980469 L 7.371094 809.980469 Z M 7.371094 381 " clip-rule="nonzero"/></clipPath><clipPath id="fea02fa855"><path d="M 625.566406 178 L 802.570312 178 L 802.570312 493 L 625.566406 493 Z M 625.566406 178 " clip-rule="nonzero"/></clipPath></defs><path fill="#95a690" d="M 79.722656 154.496094 C 77.0625 122.351562 74.429688 90.203125 71.722656 58.0625 C 70.84375 47.640625 76.886719 40.867188 87.394531 40.070312 C 111.050781 38.269531 134.691406 36.210938 158.34375 34.285156 C 175.996094 32.851562 193.660156 31.476562 211.316406 30.039062 C 234.800781 28.121094 258.277344 26.152344 281.757812 24.242188 C 299.75 22.785156 317.75 21.410156 335.734375 19.941406 C 358.550781 18.078125 381.363281 16.136719 404.179688 14.265625 C 422 12.804688 439.824219 11.421875 457.648438 9.96875 C 481.136719 8.050781 504.613281 6.089844 528.089844 4.160156 C 544.582031 2.800781 561.070312 1.453125 577.558594 0.152344 C 578.679688 0.0625 580.183594 0.0234375 580.910156 0.652344 C 585.390625 4.515625 590.746094 6.953125 591.167969 14.75 C 592.457031 38.601562 594.890625 62.390625 596.875 86.199219 C 596.816406 88.722656 596.679688 90.175781 593.273438 88.582031 C 583.78125 84.136719 574.265625 79.558594 564.371094 76.179688 C 551.363281 71.738281 537.792969 69.285156 524.070312 72.300781 C 516.992188 73.859375 510.238281 76.882812 503.34375 79.242188 C 503.191406 78.597656 503.046875 77.949219 502.878906 77.3125 C 500.347656 67.773438 500.367188 67.867188 490.578125 69.859375 C 482.835938 71.4375 475.03125 72.738281 467.25 74.164062 C 466.664062 67.882812 466.457031 61.53125 465.382812 55.328125 C 463.914062 46.832031 456.820312 41.882812 448.816406 43.085938 C 440.882812 44.277344 435.933594 51.277344 436.683594 59.839844 C 437.304688 66.957031 437.632812 74.101562 438.089844 81.230469 C 413.582031 86.59375 389.0625 91.902344 364.570312 97.339844 C 354.875 99.492188 345.238281 101.9375 335.574219 104.25 C 329.613281 104.96875 323.648438 105.695312 317.683594 106.417969 C 303.214844 105.71875 288.75 104.996094 274.28125 104.332031 C 265.800781 103.941406 257.304688 103.675781 248.820312 103.265625 C 247.363281 103.191406 245.929688 102.660156 244.488281 102.34375 C 243.730469 93.550781 242.984375 84.761719 242.21875 75.972656 C 241.414062 66.71875 235.132812 60.75 226.632812 61.140625 C 218.535156 61.515625 212.800781 68.136719 213.074219 77.179688 C 213.28125 84.167969 213.851562 91.140625 214.257812 98.125 C 213.589844 99.015625 212.875 100.714844 212.257812 100.679688 C 201.015625 100.042969 189.785156 99.285156 178.5625 98.34375 C 175.539062 98.089844 173.667969 98.886719 173.289062 101.992188 C 173.046875 103.964844 173.125 105.972656 172.957031 107.957031 C 172.671875 111.402344 172.3125 114.835938 171.984375 118.273438 C 161.519531 119.289062 151.070312 120.433594 140.59375 121.21875 C 137.496094 121.453125 136.457031 122.503906 136.746094 125.476562 C 137.230469 130.464844 137.546875 135.464844 137.9375 140.457031 C 137.695312 147.125 137.675781 147.019531 131.214844 148.417969 C 120.671875 150.707031 110.164062 153.144531 99.640625 155.511719 C 94.125 156.171875 88.621094 157 83.085938 157.332031 C 82.023438 157.390625 80.847656 155.492188 79.722656 154.496094 " fill-opacity="1" fill-rule="nonzero"/><g clip-path="url(#a6232a8e95)"><path fill="#d2d9db" d="M 296.566406 735.078125 C 296.132812 735.320312 295.65625 735.820312 295.265625 735.757812 C 287.9375 734.632812 283.796875 739.535156 278.988281 743.78125 C 261.582031 759.15625 243.242188 773.296875 223.003906 784.851562 C 206.234375 794.425781 188.753906 802.125 169.867188 806.5 C 130.582031 815.609375 95.574219 806.664062 64.394531 781.597656 C 46.292969 767.046875 32 749.402344 22.085938 728.339844 C 15.355469 714.046875 11.066406 698.980469 9.328125 683.292969 C 8.230469 673.375 7.453125 663.371094 7.375 653.398438 C 7.1875 628.886719 11.828125 605.023438 18.164062 581.453125 C 28.195312 544.128906 43.75 509.015625 62.085938 475.179688 C 73.210938 454.648438 85.890625 434.96875 97.8125 414.871094 C 98.96875 412.921875 99.710938 410.722656 100.648438 408.636719 C 101.75 407.445312 103.007812 406.363281 103.929688 405.039062 C 107.234375 400.289062 110.28125 395.355469 113.707031 390.703125 C 116.082031 387.472656 118.910156 384.582031 121.535156 381.546875 C 127.269531 391.640625 135.804688 398.230469 146.800781 401.75 C 146.410156 402.488281 146.089844 403.265625 145.625 403.953125 C 134.660156 420.414062 123.515625 436.765625 112.800781 453.386719 C 109.5625 458.40625 104.929688 463.082031 105.601562 469.910156 C 104.589844 467.726562 103.679688 467.320312 102.347656 469.792969 C 98.382812 477.140625 94.128906 484.335938 90.289062 491.75 C 79.375 512.820312 69.035156 534.148438 60.796875 556.460938 C 47.871094 591.46875 38.386719 627.140625 40.554688 664.863281 C 41.171875 675.597656 42.695312 686.488281 45.519531 696.839844 C 53.414062 725.808594 70.851562 748.082031 96.15625 764.023438 C 114.996094 775.894531 135.445312 779.828125 157.535156 775.53125 C 176.523438 771.839844 193.789062 764.167969 210.21875 754.332031 C 215.800781 750.988281 221.199219 747.335938 226.59375 743.699219 C 227.308594 743.214844 230.09375 742.460938 227.164062 740.9375 C 229.242188 740.0625 231.683594 739.628906 233.339844 738.246094 C 244.9375 728.574219 256.628906 718.992188 267.769531 708.804688 C 277.226562 700.15625 286.117188 690.871094 294.996094 681.605469 C 299.808594 676.582031 304.0625 671.03125 308.5625 665.714844 C 312.257812 661.359375 315.953125 657.003906 319.644531 652.644531 C 324.585938 647.054688 329.765625 641.660156 334.402344 635.839844 C 341.75 626.617188 348.855469 617.191406 355.820312 607.679688 C 359.714844 602.363281 363.128906 596.6875 366.761719 591.175781 C 372.667969 582.601562 378.585938 574.023438 384.492188 565.449219 C 393.648438 551.09375 402.800781 536.742188 411.960938 522.390625 C 421.445312 528.5625 430.933594 534.738281 440.421875 540.917969 C 436.273438 547.234375 432.117188 553.539062 428.042969 559.90625 C 427.921875 560.09375 428.765625 560.890625 429.15625 561.402344 C 428.164062 561.984375 426.800781 562.328125 426.242188 563.191406 C 421.117188 571.160156 416.128906 579.21875 411.101562 587.253906 C 410.054688 588.292969 408.828125 589.207031 407.992188 590.394531 C 398.992188 603.167969 390.089844 616.011719 381.078125 628.777344 C 376.40625 635.394531 371.570312 641.894531 366.804688 648.449219 C 365.449219 650.179688 364.09375 651.90625 362.734375 653.632812 C 354.636719 663.566406 346.917969 673.839844 338.359375 683.355469 C 324.082031 699.230469 309.265625 714.617188 294.699219 730.226562 C 293.488281 731.523438 292.460938 732.992188 291.34375 734.378906 C 293.085938 734.613281 294.828125 734.847656 296.566406 735.078125 " fill-opacity="1" fill-rule="nonzero"/></g><path fill="#b40100" d="M 440.421875 540.917969 C 430.933594 534.738281 421.445312 528.5625 411.960938 522.390625 C 396.585938 508.910156 384.785156 492.8125 376.578125 474.082031 C 373.917969 466.285156 371.253906 458.492188 368.59375 450.699219 C 368.5625 450.324219 368.535156 449.941406 368.5 449.566406 C 368.335938 449.046875 368.175781 448.523438 368.007812 448.003906 C 364.003906 431.003906 361.839844 413.761719 361.492188 396.292969 C 362.203125 381.308594 362.914062 366.320312 363.628906 351.335938 C 364.933594 341.609375 369.960938 334.582031 378.851562 330.359375 C 388.296875 327.785156 396.664062 329.683594 403.875 336.394531 C 405.675781 340.035156 407.476562 343.675781 409.277344 347.316406 C 409.246094 350.609375 409.320312 353.902344 409.15625 357.183594 C 408.800781 364.292969 408.324219 371.402344 407.898438 378.507812 C 407.699219 379.816406 407.351562 381.125 407.324219 382.4375 C 406.933594 403.996094 408.644531 425.304688 415.210938 446.007812 C 415.390625 446.300781 415.574219 446.589844 415.757812 446.886719 L 415.828125 446.953125 C 418.03125 455.585938 421.800781 463.476562 427.027344 470.683594 C 436.566406 484.816406 449.308594 494.925781 465.183594 501.109375 C 476.386719 506.578125 488.425781 508.0625 500.625 507.675781 C 516.335938 507.171875 531.605469 503.917969 546.367188 498.425781 C 556.800781 493.925781 567.230469 489.417969 577.664062 484.914062 C 581.972656 482.558594 586.289062 480.203125 590.597656 477.847656 C 593.785156 476.042969 597.207031 474.550781 600.105469 472.375 C 607.945312 466.507812 616.371094 464.996094 625.644531 468.007812 L 625.667969 468.011719 C 626.050781 468.230469 626.429688 468.445312 626.808594 468.65625 C 636.058594 474.128906 639.929688 482.320312 639.054688 492.90625 C 636.636719 497.351562 634.21875 501.796875 631.796875 506.242188 C 631.535156 506.523438 631.273438 506.800781 631.015625 507.082031 L 630.957031 507.144531 C 620.878906 513.164062 610.808594 519.183594 600.734375 525.199219 C 594.625 528.109375 588.511719 531.019531 582.394531 533.929688 C 571.40625 537.835938 560.554688 542.210938 549.394531 545.546875 C 524.316406 553.046875 498.695312 556.398438 472.78125 551.070312 C 461.761719 548.804688 451.195312 544.367188 440.421875 540.917969 " fill-opacity="1" fill-rule="nonzero"/><path fill="#bad0b4" d="M 625.644531 468.007812 C 616.371094 464.996094 607.945312 466.507812 600.105469 472.375 C 597.207031 474.550781 593.785156 476.042969 590.597656 477.847656 C 590.339844 477.425781 589.9375 477.039062 589.839844 476.585938 C 586.09375 459.25 582.429688 441.898438 578.613281 424.574219 C 576.769531 416.203125 574.628906 407.890625 572.628906 399.550781 C 571.324219 385.457031 570.027344 371.363281 568.722656 357.269531 C 569.34375 352.703125 570.222656 348.160156 570.535156 343.574219 C 571.664062 327.3125 572.664062 311.039062 573.589844 294.761719 C 574.371094 280.972656 574.960938 267.164062 575.675781 253.367188 C 575.992188 247.386719 576.363281 241.40625 576.785156 235.429688 C 577.710938 222.332031 578.78125 209.246094 579.617188 196.136719 C 580.148438 187.828125 580.285156 179.496094 580.734375 171.179688 C 581.074219 165.039062 581.679688 158.917969 582.082031 152.777344 C 582.652344 144.148438 583.125 135.511719 583.683594 126.878906 C 583.855469 124.230469 582.585938 123.4375 580.09375 123.382812 C 569.9375 123.140625 559.78125 122.753906 549.625 122.421875 C 549.289062 121.054688 548.957031 119.691406 548.625 118.324219 C 550.21875 118.613281 551.835938 119.257812 553.394531 119.132812 C 563.453125 118.335938 573.492188 117.371094 583.539062 116.460938 C 585.589844 127.515625 593.132812 134.414062 601.746094 140.503906 C 602.648438 152.8125 603.535156 165.121094 604.453125 177.421875 C 605.203125 187.40625 605.945312 197.390625 606.765625 207.367188 C 607.996094 222.324219 609.328125 237.277344 610.554688 252.238281 C 611.355469 262.046875 611.996094 271.871094 612.800781 281.683594 C 614.027344 296.644531 615.363281 311.589844 616.589844 326.550781 C 617.390625 336.363281 618.03125 346.1875 618.839844 355.996094 C 620.050781 370.621094 621.363281 385.238281 622.597656 399.863281 C 623.355469 408.84375 624.082031 417.820312 624.753906 426.800781 C 625.523438 437.121094 626.210938 447.441406 626.9375 457.765625 C 627.226562 460.125 627.515625 462.488281 627.804688 464.847656 L 627.800781 464.890625 C 627.082031 465.933594 626.363281 466.96875 625.644531 468.007812 " fill-opacity="1" fill-rule="nonzero"/><path fill="#bad0b4" d="M 296.566406 735.078125 C 294.828125 734.847656 293.085938 734.613281 291.34375 734.378906 C 292.460938 732.992188 293.488281 731.523438 294.699219 730.226562 C 309.265625 714.617188 324.082031 699.230469 338.359375 683.355469 C 346.917969 673.839844 354.636719 663.566406 362.734375 653.632812 C 363.480469 653.953125 364.207031 654.523438 364.960938 654.5625 C 372.4375 654.980469 379.910156 655.28125 387.382812 655.660156 C 394.027344 656 400.664062 656.320312 407.300781 656.785156 C 420.21875 657.6875 433.121094 658.789062 446.042969 659.613281 C 454.511719 660.152344 462.996094 660.3125 471.472656 660.730469 C 476.28125 660.960938 481.097656 661.21875 485.882812 661.742188 C 490.433594 662.238281 494.949219 663.082031 499.476562 663.773438 C 497.703125 665.371094 495.925781 666.96875 494.148438 668.5625 C 487.960938 673.332031 481.722656 678.035156 475.589844 682.871094 C 457.410156 697.21875 439.273438 711.625 421.121094 726.003906 C 416.070312 726.070312 411.003906 725.882812 405.976562 726.25 C 396.195312 726.964844 386.441406 728.03125 376.667969 728.867188 C 361.09375 730.203125 345.515625 731.53125 329.933594 732.753906 C 318.820312 733.625 307.6875 734.3125 296.566406 735.078125 " fill-opacity="1" fill-rule="nonzero"/><path fill="#d2d9db" d="M 403.875 336.394531 C 396.664062 329.683594 388.296875 327.785156 378.851562 330.359375 C 380.09375 324.066406 381.347656 317.773438 382.574219 311.476562 C 384.019531 304.035156 385.4375 296.589844 386.871094 289.148438 C 389.65625 280.167969 392.484375 271.191406 395.148438 262.175781 C 395.347656 261.511719 394.351562 260.496094 393.914062 259.640625 C 395.199219 258.082031 396.976562 256.714844 397.691406 254.921875 C 401.410156 245.625 404.863281 236.222656 408.390625 226.851562 C 410.261719 221.878906 412.101562 216.894531 413.953125 211.914062 C 418.3125 202.828125 422.683594 193.757812 427.007812 184.65625 C 427.414062 183.800781 427.496094 182.789062 427.726562 181.847656 C 428.347656 181.085938 429.09375 180.390625 429.5625 179.542969 C 433.207031 173 436.792969 166.421875 440.402344 159.855469 C 444.320312 152.730469 448.238281 145.601562 452.15625 138.472656 C 458.199219 129.417969 464.246094 120.367188 470.289062 111.3125 C 475.613281 104.972656 480.941406 98.640625 486.273438 92.304688 C 491.964844 87.949219 497.65625 83.597656 503.34375 79.242188 C 510.238281 76.882812 516.992188 73.859375 524.070312 72.300781 C 537.792969 69.285156 551.363281 71.738281 564.371094 76.179688 C 574.265625 79.558594 583.78125 84.136719 593.273438 88.582031 C 596.679688 90.175781 596.816406 88.722656 596.875 86.199219 C 598.375 87.835938 596.761719 91.882812 600.941406 91.433594 C 591.25 94.628906 585.097656 100.917969 583.613281 111.28125 C 582.371094 110.902344 581.09375 110.613281 579.894531 110.136719 C 570.621094 106.460938 561.378906 102.714844 552.097656 99.074219 C 550.320312 98.378906 548.1875 97.242188 547.222656 100.28125 C 546.261719 99.289062 545.433594 97.621094 544.320312 97.40625 C 533.457031 95.28125 523.238281 96.871094 513.816406 103.027344 C 504.863281 108.875 497.78125 116.660156 491.898438 125.324219 C 482.363281 139.355469 473.457031 153.8125 464.476562 168.214844 C 462.316406 171.6875 460.90625 175.625 459.148438 179.351562 C 454.15625 189.09375 449.160156 198.835938 444.191406 208.59375 C 444.066406 208.835938 444.265625 209.238281 444.320312 209.570312 C 442.316406 213.148438 439.914062 216.558594 438.386719 220.328125 C 433.4375 232.523438 428.808594 244.851562 424.058594 257.132812 C 421.652344 264.332031 419.160156 271.507812 416.882812 278.75 C 416.0625 281.371094 415.761719 284.164062 415.226562 286.878906 C 414.832031 287.394531 414.203125 287.855469 414.078125 288.433594 C 410.644531 304.410156 407.265625 320.40625 403.875 336.394531 " fill-opacity="1" fill-rule="nonzero"/><g clip-path="url(#fea02fa855)"><path fill="#d2d9db" d="M 625.644531 468.007812 C 626.363281 466.96875 627.082031 465.933594 627.800781 464.890625 C 631.710938 462.125 635.875 459.652344 639.484375 456.535156 C 657.929688 440.585938 675.316406 423.609375 691.339844 405.148438 C 714.597656 378.339844 735.015625 349.574219 752.800781 318.949219 C 762.089844 302.964844 771.113281 286.808594 775.863281 268.621094 C 780.234375 251.867188 775.375 237.847656 763.898438 225.972656 C 756.984375 218.8125 748.992188 212.679688 741.363281 206.234375 C 739.890625 204.984375 737.855469 204.40625 736.082031 203.515625 C 744.742188 197.378906 748.285156 189.113281 746.40625 178.605469 C 753.0625 183.617188 759.753906 188.582031 766.371094 193.648438 C 777.488281 202.160156 786.832031 212.234375 793.890625 224.425781 C 804.203125 242.246094 804.675781 260.820312 798.722656 280.035156 C 792.6875 299.511719 782.855469 317.152344 772.597656 334.59375 C 759.542969 356.792969 745.058594 378.015625 729.371094 398.433594 C 711.710938 421.417969 691.96875 442.507812 670.847656 462.289062 C 662.101562 470.480469 652.328125 477.574219 643.308594 485.488281 C 641.28125 487.269531 640.441406 490.402344 639.054688 492.90625 C 639.929688 482.320312 636.058594 474.128906 626.808594 468.65625 C 626.429688 468.445312 626.050781 468.230469 625.667969 468.011719 L 625.644531 468.007812 " fill-opacity="1" fill-rule="nonzero"/></g><path fill="#bad0b4" d="M 121.535156 381.546875 C 118.910156 384.582031 116.082031 387.472656 113.707031 390.703125 C 110.28125 395.355469 107.234375 400.289062 103.929688 405.039062 C 103.007812 406.363281 101.75 407.445312 100.648438 408.636719 L 100.640625 408.609375 C 100.359375 406.257812 100.070312 403.910156 99.785156 401.558594 C 98.125 381.636719 96.453125 361.714844 94.824219 341.789062 C 94.046875 332.320312 93.414062 322.84375 92.632812 313.375 C 91.402344 298.433594 90.066406 283.5 88.835938 268.558594 C 88.042969 258.925781 87.40625 249.277344 86.617188 239.648438 C 85.378906 224.535156 84.046875 209.4375 82.808594 194.324219 C 82.019531 184.691406 81.332031 175.050781 80.59375 165.414062 C 80.3125 161.773438 80.011719 158.136719 79.722656 154.496094 C 80.847656 155.492188 82.023438 157.390625 83.085938 157.332031 C 88.621094 157 94.125 156.171875 99.640625 155.511719 C 99.757812 157.34375 99.636719 159.226562 100.023438 160.996094 C 104.667969 182.484375 109.394531 203.949219 114.085938 225.425781 C 120.375 254.21875 126.589844 283.03125 132.984375 311.808594 C 133.851562 315.726562 135.550781 319.464844 136.867188 323.285156 C 136.492188 323.617188 136.152344 323.988281 135.75 324.273438 C 120.742188 334.828125 113.96875 349.136719 116.824219 367.390625 C 117.585938 372.238281 119.921875 376.828125 121.535156 381.546875 " fill-opacity="1" fill-rule="nonzero"/><path fill="#bad0b4" d="M 640.007812 608.691406 C 640.730469 620.652344 641.34375 632.628906 642.210938 644.578125 C 642.953125 654.867188 644.03125 665.128906 644.882812 675.410156 C 645.359375 681.222656 645.578125 687.054688 646.089844 692.855469 C 646.691406 699.664062 639.90625 707.398438 633.164062 707.90625 C 618.222656 709.027344 603.316406 710.488281 588.378906 711.628906 C 576.765625 712.515625 565.121094 713.125 553.492188 713.855469 C 562.695312 706.398438 571.839844 698.871094 581.109375 691.5 C 590.457031 684.066406 590.445312 684.1875 583.167969 674.957031 C 581.234375 672.5 580.035156 672.058594 577.316406 674.25 C 559.097656 688.894531 540.691406 703.3125 522.347656 717.808594 C 520.777344 717.574219 519.203125 717.097656 517.648438 717.144531 C 512.878906 717.308594 508.125 717.671875 503.363281 717.953125 C 504.382812 716.925781 505.324219 715.796875 506.441406 714.882812 C 511.753906 710.539062 517.117188 706.253906 522.460938 701.953125 C 534.347656 692.519531 546.230469 683.082031 558.117188 673.648438 C 585.410156 651.996094 612.710938 630.347656 640.007812 608.691406 " fill-opacity="1" fill-rule="nonzero"/><path fill="#525a64" d="M 640.007812 608.691406 C 612.710938 630.347656 585.410156 651.996094 558.117188 673.648438 C 546.230469 683.082031 534.347656 692.519531 522.460938 701.953125 C 520.574219 700.441406 518.441406 699.148438 516.847656 697.367188 C 513.523438 693.652344 510.488281 689.675781 507.335938 685.800781 C 507.328125 685.476562 507.3125 685.144531 507.292969 684.816406 C 510.976562 682.304688 514.824219 680 518.316406 677.25 C 532.4375 666.113281 546.441406 654.832031 560.515625 643.636719 C 574.324219 632.644531 588.164062 621.691406 601.988281 610.714844 C 616.066406 599.535156 630.171875 588.382812 644.207031 577.148438 C 652.898438 570.191406 661.484375 563.101562 670.113281 556.070312 C 670.394531 556.160156 670.679688 556.234375 670.964844 556.300781 C 675.328125 561.949219 679.699219 567.601562 684.0625 573.25 C 670.671875 584.011719 657.277344 594.765625 643.886719 605.53125 C 642.589844 606.578125 641.300781 607.640625 640.007812 608.691406 " fill-opacity="1" fill-rule="nonzero"/><path fill="#444b53" d="M 670.113281 556.070312 C 661.484375 563.101562 652.898438 570.191406 644.207031 577.148438 C 630.171875 588.382812 616.066406 599.535156 601.988281 610.714844 C 588.164062 621.691406 574.324219 632.644531 560.515625 643.636719 C 546.441406 654.832031 532.4375 666.113281 518.316406 677.25 C 514.824219 680 510.976562 682.304688 507.292969 684.8125 C 502.914062 679.398438 498.535156 673.980469 494.148438 668.5625 C 495.925781 666.96875 497.703125 665.371094 499.476562 663.773438 C 511.789062 654.023438 524.097656 644.269531 536.410156 634.515625 C 537.882812 633.414062 539.382812 632.347656 540.816406 631.199219 C 556.476562 618.664062 572.132812 606.109375 587.792969 593.558594 C 595.460938 587.472656 603.132812 581.382812 610.808594 575.300781 C 619.210938 568.664062 627.609375 562.027344 636.011719 555.394531 C 642.648438 550.203125 649.289062 545.007812 655.929688 539.8125 C 656.910156 540.371094 658.167969 540.695312 658.824219 541.507812 C 662.664062 546.296875 666.367188 551.207031 670.113281 556.070312 " fill-opacity="1" fill-rule="nonzero"/><path fill="#525a64" d="M 522.347656 717.808594 C 540.691406 703.3125 559.097656 688.894531 577.316406 674.25 C 580.035156 672.058594 581.234375 672.5 583.167969 674.957031 C 590.445312 684.1875 590.457031 684.066406 581.109375 691.5 C 571.839844 698.871094 562.695312 706.398438 553.492188 713.855469 C 545.566406 719.988281 537.578125 726.046875 529.71875 732.269531 C 503.105469 753.347656 476.492188 774.4375 450 795.664062 C 446.996094 798.070312 445.488281 798.132812 443.054688 794.929688 C 436.398438 786.183594 436.234375 786.304688 444.769531 779.550781 C 450.355469 775.128906 450.355469 775.128906 445.9375 769.582031 C 445.003906 768.398438 444.078125 767.210938 443.148438 766.03125 C 448.125 762.054688 453.105469 758.078125 458.082031 754.097656 C 459.652344 756.046875 461.375 757.890625 462.75 759.96875 C 464.472656 762.589844 465.855469 762.941406 468.527344 760.785156 C 486.046875 746.644531 503.722656 732.699219 521.347656 718.6875 C 521.664062 718.40625 521.980469 718.125 522.292969 717.847656 L 522.347656 717.808594 " fill-opacity="1" fill-rule="nonzero"/><path fill="#737982" d="M 494.148438 668.5625 C 498.535156 673.980469 502.914062 679.398438 507.292969 684.8125 C 507.3125 685.144531 507.328125 685.476562 507.335938 685.800781 C 502.25 689.847656 497.171875 693.898438 492.085938 697.933594 C 476.820312 710.054688 461.542969 722.167969 446.285156 734.300781 C 431.421875 746.125 416.597656 758 401.660156 769.730469 C 400.734375 770.457031 398.976562 770.117188 397.605469 770.273438 C 392.273438 764.699219 392.5 757.550781 392.324219 750.628906 C 392.292969 749.398438 393.976562 747.890625 395.1875 746.90625 C 403.433594 740.199219 411.757812 733.597656 420.058594 726.964844 C 420.398438 726.65625 420.730469 726.355469 421.070312 726.054688 L 421.121094 726.003906 C 439.273438 711.625 457.410156 697.21875 475.589844 682.871094 C 481.722656 678.035156 487.960938 673.332031 494.148438 668.5625 " fill-opacity="1" fill-rule="nonzero"/><path fill="#8b929d" d="M 397.605469 770.273438 C 398.976562 770.117188 400.734375 770.457031 401.660156 769.730469 C 416.597656 758 431.421875 746.125 446.285156 734.300781 C 461.542969 722.167969 476.820312 710.054688 492.085938 697.933594 C 497.171875 693.898438 502.25 689.847656 507.335938 685.800781 C 510.488281 689.675781 513.523438 693.652344 516.847656 697.367188 C 518.441406 699.148438 520.574219 700.441406 522.460938 701.953125 C 517.117188 706.253906 511.753906 710.539062 506.441406 714.882812 C 505.324219 715.796875 504.382812 716.925781 503.363281 717.953125 C 493.714844 725.386719 483.996094 732.730469 474.445312 740.285156 C 468.851562 744.714844 463.527344 749.484375 458.082031 754.097656 C 453.105469 758.078125 448.125 762.054688 443.148438 766.03125 C 438.851562 769.097656 434.441406 772.015625 430.28125 775.257812 C 419.777344 783.449219 405.480469 781.328125 397.605469 770.273438 " fill-opacity="1" fill-rule="nonzero"/><path fill="#6d6d6d" d="M 746.40625 178.605469 C 748.285156 189.113281 744.742188 197.378906 736.082031 203.515625 C 725.3125 209.398438 714.789062 206.710938 704.949219 201.613281 C 694.050781 195.96875 689.839844 180.464844 695.355469 169.671875 C 701.070312 158.476562 713.554688 154.171875 725.742188 159.253906 C 728.511719 160.40625 731.222656 161.71875 733.902344 163.078125 C 740.398438 166.359375 744.410156 171.679688 746.40625 178.605469 " fill-opacity="1" fill-rule="nonzero"/><path fill="#6d6d6d" d="M 583.613281 111.28125 C 585.097656 100.917969 591.25 94.628906 600.941406 91.433594 C 615.195312 89.132812 625 96.679688 632.898438 106.921875 C 638.660156 114.398438 638.007812 124.667969 632.488281 132.246094 C 626.238281 140.816406 617.449219 143.3125 607.300781 142.054688 C 606.148438 141.914062 605.035156 141.496094 603.90625 141.210938 C 603.503906 141.027344 603.097656 140.84375 602.695312 140.664062 C 602.390625 140.539062 602.074219 140.492188 601.746094 140.503906 C 593.132812 134.414062 585.589844 127.515625 583.539062 116.460938 C 583.5625 114.734375 583.585938 113.007812 583.613281 111.28125 " fill-opacity="1" fill-rule="nonzero"/><path fill="#bad0b4" d="M 636.011719 555.394531 C 627.609375 562.027344 619.210938 568.664062 610.808594 575.300781 C 610.585938 573.164062 610.558594 570.988281 610.117188 568.898438 C 607.035156 554.324219 603.875 539.765625 600.734375 525.199219 C 610.808594 519.183594 620.878906 513.164062 630.957031 507.144531 C 631.945312 518.875 632.851562 530.621094 633.976562 542.34375 C 634.390625 546.714844 635.316406 551.042969 636.011719 555.394531 " fill-opacity="1" fill-rule="nonzero"/><path fill="#d8d3a1" d="M 684.0625 573.25 C 679.699219 567.601562 675.328125 561.949219 670.964844 556.300781 C 681.308594 547.941406 691.671875 539.605469 701.984375 531.207031 C 708.160156 526.171875 714.253906 521.039062 720.386719 515.949219 C 722.101562 517.34375 723.828125 518.488281 721.863281 521.175781 C 709.199219 538.488281 696.648438 555.882812 684.0625 573.25 " fill-opacity="1" fill-rule="nonzero"/><path fill="#b3af86" d="M 720.386719 515.949219 C 714.253906 521.039062 708.160156 526.171875 701.984375 531.207031 C 691.671875 539.605469 681.308594 547.941406 670.964844 556.300781 C 670.679688 556.234375 670.394531 556.160156 670.113281 556.070312 C 666.367188 551.207031 662.664062 546.296875 658.824219 541.507812 C 658.167969 540.695312 656.910156 540.371094 655.929688 539.8125 C 664.695312 536.351562 673.429688 532.820312 682.226562 529.449219 C 694.167969 524.875 706.152344 520.417969 718.113281 515.917969 C 718.855469 515.925781 719.589844 515.933594 720.328125 515.941406 L 720.386719 515.949219 " fill-opacity="1" fill-rule="nonzero"/><path fill="#d2d9db" d="M 627.804688 464.847656 C 627.515625 462.488281 627.226562 460.125 626.9375 457.765625 C 627.226562 460.125 627.515625 462.488281 627.804688 464.847656 " fill-opacity="1" fill-rule="nonzero"/><path fill="#d2d9db" d="M 99.785156 401.558594 C 100.070312 403.910156 100.359375 406.257812 100.640625 408.609375 C 100.359375 406.257812 100.070312 403.910156 99.785156 401.558594 " fill-opacity="1" fill-rule="nonzero"/><path fill="#d8d3a1" d="M 720.328125 515.941406 C 719.589844 515.933594 718.855469 515.925781 718.113281 515.917969 C 718.855469 515.925781 719.589844 515.933594 720.328125 515.941406 " fill-opacity="1" fill-rule="nonzero"/><path fill="#bad0b4" d="M 631.015625 507.082031 C 631.273438 506.800781 631.535156 506.523438 631.796875 506.242188 C 631.535156 506.523438 631.273438 506.800781 631.015625 507.082031 " fill-opacity="1" fill-rule="nonzero"/><path fill="#bad0b4" d="M 602.695312 140.664062 C 603.097656 140.84375 603.503906 141.027344 603.90625 141.210938 C 603.503906 141.027344 603.097656 140.84375 602.695312 140.664062 " fill-opacity="1" fill-rule="nonzero"/><path fill="#bad0b4" d="M 421.070312 726.054688 C 420.730469 726.355469 420.398438 726.65625 420.058594 726.964844 C 420.398438 726.65625 420.730469 726.355469 421.070312 726.054688 " fill-opacity="1" fill-rule="nonzero"/><path fill="#f0eac7" d="M 214.488281 545.265625 C 220.484375 544.839844 226.492188 544.46875 232.492188 543.980469 C 256.632812 542.019531 280.773438 540.019531 304.914062 538.050781 C 313.742188 537.332031 322.570312 536.636719 331.398438 535.976562 C 334.0625 535.777344 335.910156 535.070312 335.511719 531.777344 C 334.851562 526.304688 334.285156 520.820312 333.886719 515.328125 C 333.707031 512.871094 332.980469 511.671875 330.28125 511.898438 C 323.789062 512.457031 317.273438 512.765625 310.777344 513.296875 C 287.472656 515.203125 264.164062 517.148438 240.863281 519.09375 C 230.707031 519.9375 220.570312 521 210.40625 521.609375 C 206.371094 521.851562 205.820312 523.722656 206.234375 527.0625 C 206.726562 531.039062 206.90625 535.054688 207.265625 539.046875 C 207.859375 545.574219 207.875 545.570312 214.488281 545.265625 Z M 317.761719 249.949219 C 317.679688 208.082031 284.160156 174.453125 242.554688 174.488281 C 200.496094 174.527344 166.808594 208.207031 166.925781 250.09375 C 167.046875 291.773438 200.769531 325.367188 242.445312 325.308594 C 284.183594 325.261719 317.84375 291.574219 317.761719 249.949219 Z M 413.953125 211.914062 C 412.101562 216.894531 410.261719 221.878906 408.390625 226.851562 C 404.863281 236.222656 401.410156 245.625 397.691406 254.921875 C 396.976562 256.714844 395.199219 258.082031 393.910156 259.640625 C 387.429688 260.160156 380.949219 260.707031 374.460938 261.175781 C 371.152344 261.414062 369.304688 262.480469 369.800781 266.402344 C 370.675781 273.347656 371.207031 280.339844 371.6875 287.320312 C 371.875 290.003906 373.382812 290.167969 375.40625 290.003906 C 379.226562 289.699219 383.046875 289.429688 386.871094 289.148438 C 385.4375 296.589844 384.019531 304.035156 382.574219 311.476562 C 381.347656 317.773438 380.09375 324.066406 378.851562 330.359375 C 369.960938 334.582031 364.933594 341.609375 363.628906 351.335938 C 354.976562 352.023438 346.324219 352.683594 337.675781 353.417969 C 323.210938 354.644531 308.757812 356.046875 294.28125 357.082031 C 290.757812 357.328125 290.140625 358.769531 290.453125 361.777344 C 291.15625 368.578125 291.71875 375.398438 292.308594 382.210938 C 292.796875 387.785156 292.796875 387.980469 298.402344 387.550781 C 317.703125 386.074219 337 384.539062 356.28125 382.796875 C 359.808594 382.476562 361.171875 383.171875 360.96875 386.886719 C 360.808594 390.003906 361.292969 393.160156 361.492188 396.292969 C 361.839844 413.761719 364.003906 431.003906 368.007812 448 C 368.167969 448.519531 368.335938 449.042969 368.5 449.566406 C 368.535156 449.941406 368.5625 450.324219 368.59375 450.699219 C 365.273438 451.03125 361.953125 451.425781 358.628906 451.6875 C 340.15625 453.136719 321.679688 454.519531 303.214844 456.003906 C 279.257812 457.925781 255.3125 459.933594 231.359375 461.890625 C 222.539062 462.609375 213.722656 463.335938 204.902344 463.945312 C 202.148438 464.132812 201.132812 465.03125 201.554688 468.019531 C 202.300781 473.300781 202.765625 478.644531 202.925781 483.976562 C 203.023438 487.300781 204.191406 488.351562 207.4375 488.035156 C 215.746094 487.230469 224.070312 486.628906 232.386719 485.976562 C 246.539062 484.867188 260.6875 483.828125 274.828125 482.683594 C 298.617188 480.757812 322.402344 478.796875 346.1875 476.800781 C 356.320312 475.957031 366.449219 474.988281 376.578125 474.082031 C 384.785156 492.8125 396.585938 508.910156 411.960938 522.390625 C 402.800781 536.742188 393.648438 551.09375 384.492188 565.449219 C 382.980469 565.429688 381.464844 565.417969 379.949219 565.40625 C 378.960938 565.574219 377.976562 565.742188 376.988281 565.910156 C 362.011719 567.113281 347.03125 568.285156 332.0625 569.535156 C 309.777344 571.394531 287.496094 573.34375 265.207031 575.191406 C 248.242188 576.601562 231.269531 577.976562 214.292969 579.230469 C 211.617188 579.425781 210.8125 580.515625 211.03125 582.988281 C 211.464844 587.980469 211.847656 592.972656 212.148438 597.976562 C 212.484375 603.453125 212.839844 603.679688 218.511719 603.183594 C 233.976562 601.832031 249.453125 600.582031 264.921875 599.3125 C 278.066406 598.230469 291.210938 597.164062 304.359375 596.121094 C 325.15625 594.460938 345.957031 592.820312 366.761719 591.175781 C 363.128906 596.6875 359.714844 602.363281 355.820312 607.679688 C 348.855469 617.191406 341.75 626.617188 334.402344 635.839844 C 329.765625 641.660156 324.585938 647.054688 319.644531 652.644531 C 315.632812 652.707031 311.601562 652.554688 307.609375 652.871094 C 297.339844 653.683594 287.082031 654.785156 276.8125 655.621094 C 266.859375 656.429688 256.882812 657.015625 246.925781 657.765625 C 234.316406 658.71875 221.714844 659.738281 209.109375 660.734375 C 201.21875 661.367188 193.339844 662.09375 185.441406 662.613281 C 180.257812 662.957031 180.324219 662.675781 179.941406 657.628906 C 179.558594 652.597656 178.679688 647.597656 178.011719 642.589844 C 177.652344 636.769531 177.347656 630.945312 176.921875 625.132812 C 176.246094 615.996094 175.519531 606.867188 174.757812 597.738281 C 173.511719 582.804688 172.195312 567.882812 170.960938 552.953125 C 170.179688 543.492188 169.539062 534.019531 168.769531 524.554688 C 167.507812 508.957031 166.171875 493.363281 164.902344 477.765625 C 164.121094 468.140625 163.441406 458.503906 162.660156 448.871094 C 161.433594 433.777344 160.164062 418.683594 158.910156 403.582031 C 161.722656 403.230469 164.558594 403.035156 167.332031 402.503906 C 196.910156 396.855469 211.558594 362.578125 195.121094 337.320312 C 185.714844 322.863281 171.9375 316.90625 155.039062 317.34375 C 150.539062 316.984375 151.257812 313.171875 151.003906 310.550781 C 149.789062 298.152344 148.902344 285.722656 147.894531 273.304688 C 146.898438 261.050781 145.898438 248.800781 144.902344 236.550781 C 143.554688 219.992188 141.726562 203.457031 141.007812 186.871094 C 140.378906 172.488281 137.285156 158.226562 138.777344 143.730469 C 138.882812 142.679688 138.234375 141.554688 137.9375 140.457031 C 137.546875 135.464844 137.230469 130.464844 136.746094 125.476562 C 136.457031 122.503906 137.496094 121.453125 140.59375 121.21875 C 151.070312 120.433594 161.519531 119.289062 171.984375 118.273438 C 175.441406 117.960938 178.894531 117.652344 182.351562 117.324219 C 193.542969 116.265625 204.734375 115.199219 215.929688 114.140625 C 216.675781 123.425781 217.386719 132.714844 218.1875 141.996094 C 218.949219 150.816406 227.332031 157.441406 235.464844 156.339844 C 244.675781 155.085938 253.957031 154.328125 263.226562 153.542969 C 273.171875 152.695312 283.136719 152.121094 293.085938 151.332031 C 304.351562 150.4375 315.609375 149.410156 326.871094 148.484375 C 335.984375 147.738281 345.109375 147.082031 354.222656 146.339844 C 365.652344 145.402344 377.078125 144.40625 388.511719 143.460938 C 397.625 142.710938 406.742188 141.988281 415.863281 141.273438 C 427.960938 140.328125 440.058594 139.40625 452.15625 138.472656 C 448.238281 145.601562 444.320312 152.730469 440.402344 159.855469 C 436.792969 166.421875 433.207031 173 429.5625 179.542969 C 429.09375 180.390625 428.347656 181.085938 427.726562 181.847656 C 427.203125 181.824219 426.675781 181.800781 426.148438 181.777344 C 425.15625 181.941406 424.167969 182.113281 423.179688 182.285156 C 404.921875 183.769531 386.679688 185.347656 368.410156 186.65625 C 364.761719 186.914062 363.328125 188 363.773438 191.757812 C 364.542969 198.203125 365.375 204.675781 365.480469 211.148438 C 365.554688 215.605469 367.46875 215.820312 371.054688 215.496094 C 383.316406 214.394531 395.609375 213.582031 407.894531 212.660156 C 409.195312 212.464844 410.5 212.269531 411.804688 212.074219 C 412.519531 212.019531 413.238281 211.964844 413.953125 211.914062 " fill-opacity="1" fill-rule="nonzero"/><path fill="#fcfcfc" d="M 452.15625 138.472656 C 440.058594 139.40625 427.960938 140.328125 415.863281 141.273438 C 406.742188 141.988281 397.625 142.710938 388.511719 143.460938 C 377.078125 144.40625 365.652344 145.402344 354.222656 146.339844 C 345.109375 147.082031 335.984375 147.738281 326.871094 148.484375 C 315.609375 149.410156 304.351562 150.4375 293.085938 151.332031 C 283.136719 152.121094 273.171875 152.695312 263.226562 153.542969 C 253.957031 154.328125 244.675781 155.085938 235.464844 156.339844 C 227.332031 157.441406 218.949219 150.816406 218.1875 141.996094 C 217.386719 132.714844 216.675781 123.425781 215.929688 114.140625 C 215.957031 113.902344 215.988281 113.664062 216.019531 113.421875 C 215.789062 111.390625 215.5625 109.363281 215.328125 107.335938 C 214.972656 104.261719 214.613281 101.191406 214.257812 98.121094 C 213.851562 91.140625 213.28125 84.167969 213.074219 77.179688 C 212.800781 68.136719 218.535156 61.515625 226.632812 61.140625 C 235.132812 60.75 241.414062 66.71875 242.21875 75.972656 C 242.984375 84.761719 243.730469 93.550781 244.488281 102.339844 C 244.449219 103.308594 244.414062 104.277344 244.375 105.246094 C 244.628906 107.273438 244.882812 109.300781 245.136719 111.328125 C 245.214844 111.617188 245.300781 111.902344 245.390625 112.191406 C 245.664062 115.332031 246.214844 118.476562 246.140625 121.613281 C 246.046875 125.410156 248.226562 125.59375 250.992188 125.339844 C 254.464844 125.015625 257.941406 124.667969 261.417969 124.386719 C 270.710938 123.640625 280.007812 122.972656 289.292969 122.179688 C 299.566406 121.300781 309.816406 120.242188 320.09375 119.402344 C 329.539062 118.625 339.007812 118.058594 348.457031 117.347656 C 357.417969 116.671875 366.378906 115.976562 375.328125 115.199219 C 385.601562 114.304688 395.851562 113.210938 406.128906 112.382812 C 416.246094 111.5625 426.390625 111.058594 436.503906 110.167969 C 437.75 110.054688 439.863281 108.449219 439.875 107.515625 C 439.945312 102.746094 439.453125 97.964844 439.160156 93.191406 C 438.804688 89.203125 438.449219 85.21875 438.089844 81.230469 C 437.632812 74.101562 437.304688 66.957031 436.683594 59.839844 C 435.933594 51.277344 440.882812 44.277344 448.816406 43.085938 C 456.820312 41.882812 463.914062 46.832031 465.382812 55.328125 C 466.457031 61.53125 466.664062 67.882812 467.25 74.164062 C 467.589844 78.855469 467.933594 83.542969 468.269531 88.230469 C 468.585938 90.238281 468.910156 92.238281 469.230469 94.242188 L 469.234375 94.226562 C 469.585938 99.917969 469.941406 105.613281 470.289062 111.3125 C 464.246094 120.367188 458.199219 129.417969 452.15625 138.472656 " fill-opacity="1" fill-rule="nonzero"/><path fill="#d8d2af" d="M 137.9375 140.457031 C 138.234375 141.554688 138.882812 142.679688 138.777344 143.730469 C 137.285156 158.226562 140.378906 172.488281 141.007812 186.871094 C 141.726562 203.457031 143.554688 219.992188 144.902344 236.550781 C 145.898438 248.800781 146.898438 261.050781 147.894531 273.304688 C 148.902344 285.722656 149.789062 298.152344 151.003906 310.550781 C 151.257812 313.171875 150.539062 316.984375 155.039062 317.34375 C 148.980469 319.324219 142.921875 321.308594 136.867188 323.285156 C 135.550781 319.464844 133.851562 315.726562 132.984375 311.808594 C 126.589844 283.03125 120.375 254.21875 114.085938 225.425781 C 109.394531 203.949219 104.667969 182.484375 100.023438 160.996094 C 99.636719 159.226562 99.757812 157.34375 99.640625 155.511719 C 110.164062 153.144531 120.671875 150.707031 131.214844 148.417969 C 137.675781 147.019531 137.695312 147.125 137.9375 140.457031 " fill-opacity="1" fill-rule="nonzero"/><path fill="#f0eac7" d="M 439.160156 93.191406 C 439.453125 97.964844 439.945312 102.746094 439.875 107.515625 C 439.863281 108.449219 437.75 110.054688 436.503906 110.167969 C 426.390625 111.058594 416.246094 111.5625 406.128906 112.382812 C 395.851562 113.210938 385.601562 114.304688 375.328125 115.199219 C 366.378906 115.976562 357.417969 116.671875 348.457031 117.347656 C 339.007812 118.058594 329.539062 118.625 320.09375 119.402344 C 309.816406 120.242188 299.566406 121.300781 289.292969 122.179688 C 280.007812 122.972656 270.710938 123.640625 261.417969 124.386719 C 257.941406 124.667969 254.464844 125.015625 250.992188 125.339844 C 248.226562 125.59375 246.046875 125.410156 246.140625 121.613281 C 246.214844 118.476562 245.664062 115.332031 245.390625 112.191406 C 254.316406 111.5 263.246094 110.78125 272.175781 110.113281 C 285.246094 109.144531 298.316406 108.234375 311.382812 107.253906 C 313.492188 107.09375 315.582031 106.703125 317.683594 106.417969 C 323.648438 105.695312 329.613281 104.96875 335.574219 104.25 C 348.972656 103.269531 362.367188 102.277344 375.765625 101.316406 C 390.328125 100.273438 404.894531 99.332031 419.453125 98.210938 C 425.0625 97.777344 430.667969 97.101562 436.21875 96.1875 C 437.332031 96 438.1875 94.230469 439.160156 93.191406 " fill-opacity="1" fill-rule="nonzero"/><path fill="#d8d2af" d="M 439.160156 93.191406 C 438.1875 94.230469 437.332031 96 436.21875 96.1875 C 430.667969 97.101562 425.0625 97.777344 419.453125 98.210938 C 404.894531 99.332031 390.328125 100.273438 375.765625 101.316406 C 362.367188 102.277344 348.972656 103.269531 335.574219 104.25 C 345.238281 101.9375 354.875 99.492188 364.570312 97.339844 C 389.0625 91.902344 413.582031 86.59375 438.089844 81.230469 C 438.449219 85.21875 438.804688 89.203125 439.160156 93.191406 " fill-opacity="1" fill-rule="nonzero"/><path fill="#b4ae8c" d="M 216.019531 113.421875 C 215.988281 113.664062 215.957031 113.902344 215.929688 114.140625 C 204.734375 115.199219 193.542969 116.265625 182.351562 117.324219 C 178.894531 117.652344 175.441406 117.960938 171.984375 118.273438 C 172.3125 114.835938 172.671875 111.402344 172.957031 107.957031 C 173.125 105.972656 173.046875 103.964844 173.289062 101.992188 C 173.667969 98.886719 175.539062 98.089844 178.5625 98.34375 C 189.785156 99.285156 201.015625 100.042969 212.257812 100.679688 C 212.875 100.714844 213.589844 99.015625 214.257812 98.125 C 214.613281 101.191406 214.972656 104.261719 215.328125 107.335938 C 215.558594 109.363281 215.785156 111.390625 216.019531 113.421875 " fill-opacity="1" fill-rule="nonzero"/><path fill="#d8d2af" d="M 468.269531 88.230469 C 467.933594 83.542969 467.589844 78.855469 467.25 74.164062 C 475.03125 72.738281 482.835938 71.4375 490.578125 69.859375 C 500.367188 67.867188 500.347656 67.773438 502.878906 77.3125 C 503.046875 77.949219 503.191406 78.597656 503.34375 79.242188 C 497.65625 83.597656 491.964844 87.949219 486.273438 92.304688 C 482.847656 92.625 479.417969 92.902344 476 93.277344 C 473.734375 93.523438 471.488281 93.902344 469.234375 94.226562 L 469.230469 94.242188 C 468.90625 92.238281 468.585938 90.238281 468.269531 88.230469 " fill-opacity="1" fill-rule="nonzero"/><path fill="#b4ae8c" d="M 317.683594 106.417969 C 315.582031 106.703125 313.492188 107.09375 311.382812 107.253906 C 298.316406 108.234375 285.246094 109.144531 272.175781 110.113281 C 263.246094 110.78125 254.316406 111.5 245.390625 112.191406 C 245.300781 111.902344 245.214844 111.617188 245.136719 111.328125 C 244.882812 109.304688 244.628906 107.273438 244.375 105.246094 C 244.414062 104.277344 244.449219 103.308594 244.488281 102.339844 C 245.929688 102.660156 247.363281 103.191406 248.820312 103.265625 C 257.304688 103.675781 265.800781 103.941406 274.28125 104.332031 C 288.75 104.996094 303.214844 105.71875 317.683594 106.417969 " fill-opacity="1" fill-rule="nonzero"/><path fill="#bad0b4" d="M 178.011719 642.589844 C 178.679688 647.597656 179.558594 652.597656 179.941406 657.628906 C 180.324219 662.675781 180.257812 662.957031 185.441406 662.613281 C 193.339844 662.09375 201.21875 661.367188 209.109375 660.730469 C 210.769531 668.015625 212.582031 675.269531 214.007812 682.59375 C 214.511719 685.1875 215.265625 685.996094 217.914062 685.402344 C 232.191406 682.214844 246.5 679.160156 260.796875 676.058594 C 276.722656 672.609375 292.644531 669.164062 308.5625 665.714844 C 304.0625 671.03125 299.808594 676.582031 294.996094 681.605469 C 286.117188 690.871094 277.226562 700.15625 267.769531 708.804688 C 256.628906 718.992188 244.9375 728.574219 233.339844 738.246094 C 231.683594 739.628906 229.242188 740.0625 227.164062 740.9375 C 209.027344 742.34375 190.894531 743.734375 172.765625 745.171875 C 163.953125 745.871094 154.984375 745.863281 146.386719 747.640625 C 137.753906 749.421875 132.871094 744.933594 127.925781 739.609375 C 127.222656 738.851562 127.003906 737.476562 126.917969 736.355469 C 126.132812 725.871094 125.460938 715.375 124.679688 704.890625 C 124.011719 695.902344 123.28125 686.921875 122.507812 677.945312 C 121.304688 663.984375 119.964844 650.035156 118.835938 636.070312 C 117.648438 621.433594 116.703125 606.777344 115.546875 592.136719 C 114.3125 576.5 112.9375 560.878906 111.65625 545.25 C 110.890625 535.9375 110.199219 526.613281 109.449219 517.296875 C 108.179688 501.5 106.882812 485.707031 105.601562 469.910156 C 104.929688 463.082031 109.5625 458.40625 112.800781 453.386719 C 123.515625 436.765625 134.660156 420.414062 145.625 403.953125 C 146.089844 403.265625 146.410156 402.488281 146.800781 401.75 C 149.507812 402.335938 152.210938 402.925781 154.917969 403.511719 C 153.917969 416.957031 152.820312 430.394531 151.953125 443.847656 C 151.410156 452.160156 151.25 460.5 150.847656 468.828125 C 150.539062 475.320312 150.199219 481.8125 149.738281 488.292969 C 148.832031 501.074219 147.734375 513.839844 146.910156 526.628906 C 146.371094 534.945312 146.207031 543.289062 145.792969 551.609375 C 145.515625 557.269531 145.140625 562.921875 144.734375 568.570312 C 143.800781 581.683594 142.78125 594.792969 141.863281 607.910156 C 141.1875 617.535156 140.675781 627.179688 139.96875 636.808594 C 139.789062 639.277344 140.324219 640.488281 143.09375 640.625 C 154.738281 641.183594 166.375 641.917969 178.011719 642.589844 " fill-opacity="1" fill-rule="nonzero"/><path fill="#f0eac7" d="M 587.792969 593.558594 C 572.132812 606.109375 556.476562 618.664062 540.816406 631.199219 C 539.382812 632.347656 537.882812 633.414062 536.410156 634.515625 C 522.136719 635.578125 507.859375 636.535156 493.597656 637.726562 C 471.554688 639.570312 449.527344 641.648438 427.476562 643.480469 C 412.882812 644.691406 398.261719 645.585938 383.660156 646.722656 C 378.027344 647.152344 372.421875 647.863281 366.804688 648.449219 C 371.570312 641.894531 376.40625 635.394531 381.078125 628.777344 C 390.089844 616.011719 398.992188 603.167969 407.992188 590.394531 C 408.828125 589.207031 410.054688 588.292969 411.101562 587.253906 C 420.921875 586.523438 430.75 585.859375 440.566406 585.050781 C 459.199219 583.527344 477.820312 581.886719 496.449219 580.355469 C 513.585938 578.941406 530.730469 577.570312 547.871094 576.265625 C 550.421875 576.066406 551.3125 575.292969 550.949219 572.523438 C 550.253906 567.238281 549.789062 561.886719 549.691406 556.554688 C 549.625 553.050781 548.484375 551.855469 544.960938 552.214844 C 536.828125 553.046875 528.667969 553.601562 520.511719 554.257812 C 506.703125 555.367188 492.894531 556.488281 479.078125 557.566406 C 462.441406 558.863281 445.796875 560.128906 429.15625 561.402344 C 428.765625 560.890625 427.921875 560.09375 428.042969 559.90625 C 432.117188 553.539062 436.273438 547.234375 440.421875 540.917969 C 451.195312 544.367188 461.761719 548.804688 472.78125 551.070312 C 498.695312 556.398438 524.316406 553.046875 549.394531 545.546875 C 560.554688 542.210938 571.40625 537.835938 582.394531 533.929688 C 582.855469 537.796875 583.425781 541.652344 583.757812 545.53125 C 585.140625 561.535156 586.453125 577.546875 587.792969 593.558594 " fill-opacity="1" fill-rule="nonzero"/><path fill="#858585" d="M 158.195312 382.589844 C 171.652344 383.710938 182.113281 371.21875 182.054688 359.582031 C 181.984375 346.152344 171.328125 335.3125 157.953125 335.335938 C 145.089844 335.367188 134.765625 346.03125 134.765625 359.285156 C 134.761719 372.8125 144.566406 382.566406 158.195312 382.589844 Z M 154.917969 403.511719 C 152.210938 402.925781 149.507812 402.335938 146.800781 401.75 C 135.804688 398.230469 127.269531 391.640625 121.535156 381.546875 C 119.921875 376.828125 117.585938 372.238281 116.824219 367.390625 C 113.96875 349.136719 120.742188 334.828125 135.75 324.273438 C 136.152344 323.988281 136.492188 323.617188 136.867188 323.285156 C 142.921875 321.308594 148.980469 319.324219 155.039062 317.34375 C 171.9375 316.90625 185.714844 322.863281 195.121094 337.320312 C 211.558594 362.578125 196.910156 396.855469 167.332031 402.503906 C 164.558594 403.035156 161.722656 403.230469 158.910156 403.582031 C 157.582031 403.558594 156.25 403.539062 154.917969 403.511719 " fill-opacity="1" fill-rule="nonzero"/><path fill="#908c77" d="M 379.949219 565.40625 C 381.464844 565.417969 382.980469 565.429688 384.492188 565.449219 C 378.585938 574.023438 372.667969 582.601562 366.761719 591.175781 C 345.957031 592.820312 325.15625 594.460938 304.359375 596.121094 C 291.210938 597.164062 278.066406 598.230469 264.921875 599.3125 C 249.453125 600.582031 233.976562 601.832031 218.511719 603.183594 C 212.839844 603.679688 212.484375 603.453125 212.148438 597.976562 C 211.847656 592.972656 211.464844 587.980469 211.03125 582.988281 C 210.8125 580.515625 211.617188 579.425781 214.292969 579.230469 C 231.269531 577.976562 248.242188 576.601562 265.207031 575.191406 C 287.496094 573.34375 309.777344 571.394531 332.0625 569.535156 C 347.03125 568.285156 362.011719 567.113281 376.988281 565.910156 C 377.976562 565.742188 378.960938 565.574219 379.949219 565.40625 " fill-opacity="1" fill-rule="nonzero"/><path fill="#908c77" d="M 429.15625 561.402344 C 445.796875 560.128906 462.441406 558.863281 479.078125 557.566406 C 492.894531 556.488281 506.703125 555.367188 520.511719 554.257812 C 528.667969 553.601562 536.828125 553.046875 544.960938 552.214844 C 548.484375 551.855469 549.625 553.050781 549.691406 556.554688 C 549.789062 561.886719 550.253906 567.238281 550.949219 572.523438 C 551.3125 575.292969 550.421875 576.066406 547.871094 576.265625 C 530.730469 577.570312 513.585938 578.941406 496.449219 580.355469 C 477.820312 581.886719 459.199219 583.527344 440.566406 585.050781 C 430.75 585.859375 420.921875 586.523438 411.101562 587.253906 C 416.128906 579.21875 421.117188 571.160156 426.242188 563.191406 C 426.800781 562.328125 428.164062 561.984375 429.15625 561.402344 " fill-opacity="1" fill-rule="nonzero"/><path fill="#b4ae8c" d="M 366.804688 648.449219 C 372.421875 647.863281 378.027344 647.152344 383.660156 646.722656 C 398.261719 645.585938 412.882812 644.691406 427.476562 643.480469 C 449.527344 641.648438 471.554688 639.570312 493.597656 637.726562 C 507.859375 636.535156 522.136719 635.578125 536.410156 634.515625 C 524.097656 644.269531 511.789062 654.023438 499.476562 663.773438 C 494.949219 663.082031 490.433594 662.238281 485.882812 661.742188 C 481.097656 661.21875 476.28125 660.960938 471.472656 660.730469 C 462.996094 660.3125 454.511719 660.152344 446.042969 659.613281 C 433.121094 658.789062 420.21875 657.6875 407.300781 656.785156 C 400.664062 656.320312 394.027344 656 387.382812 655.660156 C 379.910156 655.28125 372.4375 654.980469 364.960938 654.5625 C 364.207031 654.523438 363.480469 653.953125 362.734375 653.632812 C 364.09375 651.90625 365.449219 650.179688 366.804688 648.449219 " fill-opacity="1" fill-rule="nonzero"/><path fill="#d8d2af" d="M 308.5625 665.714844 C 292.644531 669.164062 276.722656 672.609375 260.796875 676.058594 C 246.5 679.160156 232.191406 682.214844 217.914062 685.402344 C 215.265625 685.996094 214.511719 685.1875 214.007812 682.59375 C 212.582031 675.269531 210.769531 668.015625 209.109375 660.730469 C 221.714844 659.738281 234.316406 658.71875 246.925781 657.765625 C 256.882812 657.015625 266.859375 656.429688 276.8125 655.621094 C 287.082031 654.785156 297.339844 653.683594 307.609375 652.871094 C 311.601562 652.554688 315.632812 652.707031 319.644531 652.644531 C 315.953125 657.003906 312.257812 661.359375 308.5625 665.714844 " fill-opacity="1" fill-rule="nonzero"/><path fill="#f0eac7" d="M 424.058594 257.132812 C 428.808594 244.851562 433.4375 232.523438 438.386719 220.328125 C 439.914062 216.558594 442.316406 213.148438 444.316406 209.570312 C 444.316406 209.570312 444.671875 209.558594 444.671875 209.558594 L 445.015625 209.632812 C 445.988281 209.46875 446.960938 209.300781 447.929688 209.136719 C 462.207031 207.976562 476.488281 206.847656 490.761719 205.652344 C 500.71875 204.816406 510.660156 203.78125 520.625 203.0625 C 523.757812 202.832031 524.558594 201.652344 524.164062 198.660156 C 523.445312 193.21875 522.957031 187.738281 522.5625 182.257812 C 521.957031 173.796875 522.027344 173.789062 513.585938 174.875 C 513.417969 174.894531 513.257812 174.933594 513.089844 174.949219 C 496.484375 176.21875 479.878906 177.484375 463.269531 178.746094 C 462.292969 178.914062 461.316406 179.078125 460.339844 179.242188 C 459.945312 179.277344 459.550781 179.316406 459.148438 179.351562 C 460.90625 175.625 462.316406 171.6875 464.476562 168.214844 C 473.457031 153.8125 482.363281 139.355469 491.898438 125.324219 C 497.78125 116.660156 504.863281 108.875 513.816406 103.027344 C 523.238281 96.871094 533.457031 95.28125 544.320312 97.40625 C 545.433594 97.621094 546.261719 99.289062 547.226562 100.28125 C 547.691406 106.296875 548.15625 112.3125 548.625 118.324219 C 548.957031 119.691406 549.289062 121.054688 549.625 122.421875 C 549.640625 123.417969 549.65625 124.410156 549.675781 125.410156 C 549.929688 127.078125 550.183594 128.75 550.4375 130.417969 C 550.535156 133.257812 550.515625 136.109375 550.753906 138.941406 C 551.980469 153.726562 553.3125 168.5 554.539062 183.285156 C 555.335938 192.921875 555.945312 202.578125 556.753906 212.21875 C 557.964844 226.667969 559.34375 241.105469 560.523438 255.558594 C 561.683594 269.851562 562.605469 284.171875 563.765625 298.464844 C 565.355469 318.070312 567.0625 337.664062 568.722656 357.269531 C 570.027344 371.363281 571.324219 385.457031 572.628906 399.550781 C 573.324219 411.003906 573.988281 422.460938 574.730469 433.910156 C 575.027344 438.554688 575.460938 443.1875 575.863281 447.824219 C 576.785156 458.410156 577.789062 468.988281 578.589844 479.585938 C 578.722656 481.328125 577.992188 483.136719 577.664062 484.914062 C 567.230469 489.417969 556.800781 493.925781 546.371094 498.425781 C 544.390625 495.078125 541.515625 494.445312 537.753906 494.855469 C 528.996094 495.804688 520.179688 496.273438 511.394531 497.03125 C 495.988281 498.355469 480.585938 499.742188 465.183594 501.109375 C 449.308594 494.925781 436.566406 484.816406 427.027344 470.683594 C 427.640625 470.449219 428.238281 470.042969 428.863281 469.988281 C 450.007812 468.253906 471.15625 466.578125 492.300781 464.839844 C 507.617188 463.582031 522.921875 462.199219 538.246094 461.015625 C 540.84375 460.816406 541.796875 459.925781 541.578125 457.351562 C 541.085938 451.523438 540.695312 445.683594 540.339844 439.84375 C 540.164062 437.003906 538.5 436.804688 536.1875 437.015625 C 522.71875 438.253906 509.246094 439.46875 495.761719 440.570312 C 469.121094 442.738281 442.472656 444.828125 415.828125 446.953125 L 415.757812 446.886719 C 415.574219 446.597656 415.390625 446.300781 415.210938 446.007812 C 408.644531 425.304688 406.933594 403.996094 407.324219 382.4375 C 407.351562 381.125 407.699219 379.816406 407.898438 378.507812 C 417.542969 377.808594 427.199219 377.179688 436.832031 376.304688 C 437.757812 376.21875 439.324219 374.589844 439.28125 373.734375 C 438.902344 365.738281 438.183594 357.757812 437.671875 349.765625 C 437.441406 346.140625 435.941406 345.183594 432.222656 345.632812 C 424.617188 346.550781 416.933594 346.792969 409.277344 347.316406 C 407.476562 343.675781 405.675781 340.035156 403.875 336.394531 C 407.265625 320.40625 410.644531 304.410156 414.078125 288.433594 C 414.203125 287.855469 414.832031 287.394531 415.226562 286.878906 L 415.554688 286.867188 L 415.875 286.949219 C 417.195312 286.769531 418.507812 286.589844 419.828125 286.40625 C 445.921875 284.269531 472.011719 282.121094 498.105469 279.996094 C 507.246094 279.246094 516.394531 278.589844 525.535156 277.828125 C 528.265625 277.601562 530.800781 277.363281 530.265625 273.230469 C 529.382812 266.460938 528.839844 259.632812 528.492188 252.8125 C 528.339844 249.742188 527.332031 248.710938 524.273438 248.996094 C 515.476562 249.816406 506.660156 250.441406 497.851562 251.152344 C 473.253906 253.144531 448.65625 255.136719 424.058594 257.132812 " fill-opacity="1" fill-rule="nonzero"/><path fill="#908c77" d="M 376.578125 474.082031 C 366.449219 474.988281 356.320312 475.957031 346.1875 476.800781 C 322.402344 478.796875 298.617188 480.757812 274.828125 482.683594 C 260.6875 483.828125 246.539062 484.867188 232.386719 485.976562 C 224.070312 486.628906 215.746094 487.230469 207.4375 488.035156 C 204.191406 488.351562 203.023438 487.300781 202.925781 483.976562 C 202.765625 478.644531 202.300781 473.300781 201.554688 468.019531 C 201.132812 465.03125 202.148438 464.132812 204.902344 463.945312 C 213.722656 463.335938 222.539062 462.609375 231.359375 461.890625 C 255.3125 459.933594 279.257812 457.925781 303.214844 456.003906 C 321.679688 454.519531 340.15625 453.136719 358.628906 451.6875 C 361.953125 451.425781 365.273438 451.03125 368.59375 450.699219 C 371.253906 458.492188 373.917969 466.285156 376.578125 474.082031 " fill-opacity="1" fill-rule="nonzero"/><path fill="#908c77" d="M 415.828125 446.953125 C 442.472656 444.828125 469.121094 442.738281 495.761719 440.570312 C 509.246094 439.46875 522.71875 438.253906 536.1875 437.015625 C 538.5 436.804688 540.164062 437.003906 540.339844 439.84375 C 540.695312 445.683594 541.085938 451.523438 541.578125 457.351562 C 541.796875 459.925781 540.84375 460.816406 538.246094 461.015625 C 522.921875 462.199219 507.617188 463.582031 492.300781 464.839844 C 471.15625 466.578125 450.007812 468.253906 428.863281 469.988281 C 428.238281 470.042969 427.640625 470.449219 427.027344 470.683594 C 421.800781 463.476562 418.03125 455.585938 415.828125 446.953125 " fill-opacity="1" fill-rule="nonzero"/><path fill="#908c77" d="M 361.492188 396.292969 C 361.292969 393.160156 360.808594 390.003906 360.96875 386.886719 C 361.171875 383.171875 359.808594 382.476562 356.28125 382.796875 C 337 384.539062 317.703125 386.074219 298.402344 387.550781 C 292.796875 387.980469 292.796875 387.785156 292.308594 382.210938 C 291.71875 375.398438 291.15625 368.578125 290.453125 361.777344 C 290.140625 358.769531 290.757812 357.328125 294.28125 357.082031 C 308.757812 356.046875 323.210938 354.644531 337.675781 353.417969 C 346.324219 352.683594 354.976562 352.023438 363.628906 351.335938 C 362.914062 366.320312 362.203125 381.308594 361.492188 396.292969 " fill-opacity="1" fill-rule="nonzero"/><path fill="#d8d2af" d="M 587.792969 593.558594 C 586.453125 577.546875 585.140625 561.535156 583.757812 545.53125 C 583.425781 541.652344 582.855469 537.796875 582.394531 533.929688 C 588.511719 531.019531 594.625 528.109375 600.734375 525.199219 C 603.875 539.765625 607.035156 554.324219 610.117188 568.898438 C 610.558594 570.988281 610.585938 573.164062 610.808594 575.300781 C 603.132812 581.382812 595.460938 587.472656 587.792969 593.558594 " fill-opacity="1" fill-rule="nonzero"/><path fill="#908c77" d="M 409.277344 347.316406 C 416.933594 346.792969 424.617188 346.550781 432.222656 345.632812 C 435.941406 345.183594 437.441406 346.140625 437.671875 349.765625 C 438.183594 357.757812 438.902344 365.738281 439.28125 373.734375 C 439.324219 374.589844 437.757812 376.21875 436.832031 376.304688 C 427.199219 377.179688 417.542969 377.808594 407.898438 378.507812 C 408.324219 371.402344 408.800781 364.292969 409.15625 357.183594 C 409.320312 353.902344 409.246094 350.609375 409.277344 347.316406 " fill-opacity="1" fill-rule="nonzero"/><path fill="#908c77" d="M 465.183594 501.109375 C 480.585938 499.742188 495.988281 498.355469 511.394531 497.03125 C 520.179688 496.273438 528.996094 495.804688 537.753906 494.855469 C 541.515625 494.445312 544.390625 495.078125 546.371094 498.425781 C 531.605469 503.917969 516.335938 507.171875 500.625 507.675781 C 488.425781 508.0625 476.386719 506.578125 465.183594 501.109375 " fill-opacity="1" fill-rule="nonzero"/><path fill="#d8d2af" d="M 577.664062 484.914062 C 577.992188 483.136719 578.722656 481.328125 578.589844 479.585938 C 577.789062 468.988281 576.785156 458.410156 575.863281 447.824219 C 575.460938 443.1875 575.027344 438.554688 574.730469 433.910156 C 573.988281 422.460938 573.324219 411.003906 572.628906 399.550781 C 574.628906 407.890625 576.769531 416.203125 578.613281 424.574219 C 582.429688 441.898438 586.09375 459.25 589.839844 476.585938 C 589.9375 477.039062 590.339844 477.425781 590.597656 477.847656 C 586.289062 480.203125 581.972656 482.558594 577.664062 484.914062 " fill-opacity="1" fill-rule="nonzero"/><path fill="#908c77" d="M 368.5 449.566406 C 368.335938 449.042969 368.167969 448.519531 368.007812 448 C 368.175781 448.523438 368.335938 449.046875 368.5 449.566406 " fill-opacity="1" fill-rule="nonzero"/><path fill="#bad0b4" d="M 625.667969 468.011719 C 626.050781 468.230469 626.429688 468.445312 626.808594 468.65625 C 626.429688 468.445312 626.050781 468.230469 625.667969 468.011719 " fill-opacity="1" fill-rule="nonzero"/><path fill="#908c77" d="M 415.210938 446.007812 C 415.390625 446.300781 415.574219 446.597656 415.757812 446.886719 C 415.574219 446.589844 415.390625 446.300781 415.210938 446.007812 " fill-opacity="1" fill-rule="nonzero"/><path fill="#b4ae8c" d="M 568.722656 357.269531 C 567.0625 337.664062 565.355469 318.070312 563.765625 298.464844 C 562.605469 284.171875 561.683594 269.851562 560.523438 255.558594 C 559.34375 241.105469 557.964844 226.667969 556.753906 212.21875 C 555.945312 202.578125 555.335938 192.921875 554.539062 183.285156 C 553.3125 168.5 551.980469 153.726562 550.753906 138.941406 C 550.515625 136.109375 550.535156 133.257812 550.4375 130.417969 C 550.183594 128.75 549.929688 127.078125 549.675781 125.410156 C 549.65625 124.410156 549.640625 123.417969 549.625 122.421875 C 559.78125 122.753906 569.9375 123.140625 580.09375 123.382812 C 582.585938 123.4375 583.855469 124.230469 583.683594 126.878906 C 583.125 135.511719 582.652344 144.148438 582.082031 152.777344 C 581.679688 158.917969 581.074219 165.039062 580.734375 171.179688 C 580.285156 179.496094 580.148438 187.828125 579.617188 196.136719 C 578.78125 209.246094 577.710938 222.332031 576.785156 235.429688 C 576.363281 241.40625 575.992188 247.386719 575.675781 253.367188 C 574.960938 267.164062 574.371094 280.972656 573.589844 294.761719 C 572.664062 311.039062 571.664062 327.3125 570.535156 343.574219 C 570.222656 348.160156 569.34375 352.703125 568.722656 357.269531 " fill-opacity="1" fill-rule="nonzero"/><path fill="#95a690" d="M 548.625 118.324219 C 548.15625 112.3125 547.691406 106.296875 547.226562 100.28125 C 548.1875 97.242188 550.320312 98.378906 552.097656 99.074219 C 561.378906 102.714844 570.621094 106.460938 579.894531 110.136719 C 581.09375 110.613281 582.371094 110.902344 583.613281 111.28125 C 583.585938 113.007812 583.5625 114.734375 583.539062 116.460938 C 573.492188 117.371094 563.453125 118.335938 553.394531 119.132812 C 551.835938 119.257812 550.21875 118.613281 548.625 118.324219 " fill-opacity="1" fill-rule="nonzero"/><path fill="#908c77" d="M 424.058594 257.132812 C 448.65625 255.136719 473.253906 253.144531 497.851562 251.152344 C 506.660156 250.441406 515.476562 249.816406 524.273438 248.996094 C 527.332031 248.710938 528.339844 249.742188 528.492188 252.8125 C 528.839844 259.632812 529.382812 266.460938 530.265625 273.230469 C 530.800781 277.363281 528.265625 277.601562 525.535156 277.828125 C 516.394531 278.589844 507.246094 279.246094 498.105469 279.996094 C 472.011719 282.121094 445.921875 284.269531 419.828125 286.40625 C 418.511719 286.585938 417.195312 286.769531 415.875 286.949219 C 415.875 286.949219 415.554688 286.867188 415.554688 286.867188 L 415.226562 286.878906 C 415.761719 284.164062 416.0625 281.371094 416.882812 278.75 C 419.160156 271.507812 421.652344 264.332031 424.058594 257.132812 " fill-opacity="1" fill-rule="nonzero"/><path fill="#908c77" d="M 463.269531 178.746094 C 479.878906 177.484375 496.484375 176.21875 513.089844 174.949219 C 513.257812 174.933594 513.417969 174.894531 513.585938 174.875 C 522.027344 173.789062 521.957031 173.796875 522.5625 182.257812 C 522.957031 187.738281 523.445312 193.21875 524.164062 198.660156 C 524.558594 201.652344 523.757812 202.832031 520.625 203.0625 C 510.660156 203.78125 500.71875 204.816406 490.761719 205.652344 C 476.488281 206.847656 462.207031 207.976562 447.933594 209.132812 C 446.960938 209.300781 445.988281 209.464844 445.015625 209.632812 L 444.671875 209.558594 C 444.671875 209.558594 444.316406 209.570312 444.316406 209.570312 C 444.265625 209.238281 444.066406 208.835938 444.191406 208.59375 C 449.160156 198.835938 454.15625 189.09375 459.148438 179.351562 C 459.550781 179.316406 459.945312 179.277344 460.339844 179.246094 C 461.316406 179.082031 462.292969 178.914062 463.269531 178.746094 " fill-opacity="1" fill-rule="nonzero"/><path fill="#908c77" d="M 407.894531 212.660156 C 395.609375 213.582031 383.316406 214.394531 371.054688 215.496094 C 367.46875 215.820312 365.554688 215.605469 365.480469 211.148438 C 365.375 204.675781 364.542969 198.203125 363.773438 191.757812 C 363.328125 188 364.761719 186.914062 368.410156 186.65625 C 386.679688 185.347656 404.921875 183.769531 423.175781 182.285156 C 424.167969 182.117188 425.15625 181.941406 426.148438 181.777344 C 426.675781 181.800781 427.203125 181.824219 427.726562 181.847656 C 427.496094 182.789062 427.414062 183.800781 427.007812 184.65625 C 422.683594 193.757812 418.3125 202.828125 413.953125 211.914062 C 413.238281 211.964844 412.519531 212.019531 411.804688 212.074219 C 410.5 212.269531 409.195312 212.464844 407.894531 212.660156 " fill-opacity="1" fill-rule="nonzero"/><path fill="#908c77" d="M 386.871094 289.148438 C 383.046875 289.429688 379.226562 289.699219 375.40625 290.003906 C 373.382812 290.167969 371.875 290.003906 371.6875 287.320312 C 371.207031 280.339844 370.675781 273.347656 369.800781 266.402344 C 369.304688 262.480469 371.152344 261.414062 374.460938 261.175781 C 380.949219 260.707031 387.429688 260.160156 393.910156 259.640625 C 394.351562 260.496094 395.347656 261.511719 395.148438 262.175781 C 392.484375 271.191406 389.65625 280.167969 386.871094 289.148438 " fill-opacity="1" fill-rule="nonzero"/><path fill="#efeac8" d="M 469.234375 94.226562 C 471.488281 93.902344 473.734375 93.523438 476 93.277344 C 479.417969 92.902344 482.847656 92.625 486.273438 92.304688 C 480.941406 98.640625 475.613281 104.972656 470.289062 111.3125 C 469.941406 105.613281 469.585938 99.917969 469.234375 94.226562 " fill-opacity="1" fill-rule="nonzero"/><path fill="#ffffff" d="M 458.082031 754.097656 C 463.527344 749.484375 468.851562 744.714844 474.445312 740.285156 C 483.996094 732.730469 493.714844 725.386719 503.363281 717.953125 C 508.125 717.671875 512.878906 717.308594 517.648438 717.144531 C 519.203125 717.097656 520.777344 717.574219 522.347656 717.808594 L 522.292969 717.847656 C 521.980469 718.125 521.664062 718.40625 521.347656 718.6875 C 503.722656 732.699219 486.046875 746.644531 468.527344 760.785156 C 465.855469 762.941406 464.472656 762.589844 462.75 759.96875 C 461.375 757.890625 459.652344 756.046875 458.082031 754.097656 " fill-opacity="1" fill-rule="nonzero"/><path fill="#bad0b4" d="M 521.347656 718.6875 C 521.664062 718.40625 521.980469 718.125 522.292969 717.847656 C 521.980469 718.125 521.664062 718.40625 521.347656 718.6875 " fill-opacity="1" fill-rule="nonzero"/><path fill="#de3200" d="M 284.476562 250.839844 C 284.191406 247.84375 283.605469 244.839844 283.691406 241.855469 C 283.796875 238.089844 282.109375 237.527344 278.828125 237.878906 C 271.1875 238.699219 263.5 239.070312 255.859375 239.898438 C 252.515625 240.261719 251.167969 239.546875 251.015625 235.871094 C 250.6875 228.027344 249.710938 220.214844 249.25 212.378906 C 249.074219 209.449219 248.316406 208.140625 245.105469 208.574219 C 240.800781 209.152344 236.453125 209.539062 232.117188 209.609375 C 228.996094 209.65625 228.160156 210.671875 228.5 213.789062 C 229.382812 221.929688 229.753906 230.121094 230.636719 238.257812 C 230.953125 241.167969 230.171875 241.980469 227.347656 242.148438 C 219.175781 242.632812 211.027344 243.539062 202.855469 244.019531 C 199.761719 244.199219 198.785156 245.257812 199.21875 248.320312 C 199.773438 252.289062 200.140625 256.308594 200.1875 260.308594 C 200.226562 263.949219 201.339844 265.238281 205.230469 264.742188 C 212.515625 263.8125 219.867188 263.417969 227.199219 262.859375 C 232.707031 262.445312 232.671875 262.492188 233.113281 268.238281 C 233.6875 275.738281 234.46875 283.222656 234.875 290.730469 C 235.039062 293.679688 236.1875 294.367188 238.890625 294.042969 C 243.03125 293.546875 247.203125 293.136719 251.375 293.042969 C 254.558594 292.96875 255.785156 292.019531 255.40625 288.597656 C 254.53125 280.628906 254.152344 272.601562 253.308594 264.625 C 252.984375 261.578125 253.878906 260.449219 256.925781 260.289062 C 263.765625 259.921875 270.59375 259.296875 277.425781 258.769531 C 284.859375 258.195312 284.859375 258.191406 284.476562 250.839844 Z M 317.761719 249.949219 C 317.84375 291.574219 284.183594 325.261719 242.445312 325.308594 C 200.769531 325.367188 167.046875 291.773438 166.925781 250.09375 C 166.808594 208.207031 200.496094 174.527344 242.554688 174.488281 C 284.160156 174.453125 317.679688 208.082031 317.761719 249.949219 " fill-opacity="1" fill-rule="nonzero"/><path fill="#b4ae8c" d="M 154.917969 403.511719 C 156.25 403.539062 157.582031 403.558594 158.910156 403.582031 C 160.164062 418.683594 161.433594 433.777344 162.660156 448.871094 C 163.441406 458.503906 164.121094 468.140625 164.902344 477.765625 C 166.171875 493.363281 167.507812 508.957031 168.769531 524.554688 C 169.539062 534.019531 170.179688 543.492188 170.960938 552.953125 C 172.195312 567.882812 173.511719 582.804688 174.757812 597.738281 C 175.519531 606.867188 176.246094 615.996094 176.921875 625.132812 C 177.347656 630.945312 177.652344 636.769531 178.011719 642.589844 C 166.375 641.917969 154.738281 641.183594 143.09375 640.625 C 140.324219 640.488281 139.789062 639.277344 139.96875 636.808594 C 140.675781 627.179688 141.1875 617.535156 141.863281 607.910156 C 142.78125 594.792969 143.800781 581.683594 144.734375 568.570312 C 145.140625 562.921875 145.515625 557.269531 145.792969 551.609375 C 146.207031 543.289062 146.371094 534.945312 146.910156 526.628906 C 147.734375 513.839844 148.832031 501.074219 149.738281 488.292969 C 150.199219 481.8125 150.539062 475.320312 150.847656 468.828125 C 151.25 460.5 151.410156 452.160156 151.953125 443.847656 C 152.820312 430.394531 153.917969 416.957031 154.917969 403.511719 " fill-opacity="1" fill-rule="nonzero"/><path fill="#908c77" d="M 214.488281 545.261719 C 207.875 545.570312 207.859375 545.574219 207.265625 539.046875 C 206.90625 535.054688 206.726562 531.039062 206.234375 527.0625 C 205.820312 523.722656 206.371094 521.851562 210.40625 521.609375 C 220.570312 521 230.707031 519.9375 240.863281 519.09375 C 264.164062 517.148438 287.472656 515.203125 310.777344 513.296875 C 317.273438 512.765625 323.789062 512.457031 330.28125 511.898438 C 332.980469 511.671875 333.707031 512.871094 333.886719 515.328125 C 334.285156 520.820312 334.851562 526.304688 335.511719 531.777344 C 335.910156 535.070312 334.0625 535.777344 331.398438 535.976562 C 322.570312 536.636719 313.742188 537.332031 304.914062 538.050781 C 280.773438 540.019531 256.632812 542.019531 232.492188 543.980469 C 226.492188 544.46875 220.484375 544.839844 214.488281 545.261719 " fill-opacity="1" fill-rule="nonzero"/><path fill="#d2d9db" d="M 407.894531 212.660156 C 409.195312 212.464844 410.5 212.269531 411.804688 212.074219 C 410.5 212.269531 409.195312 212.464844 407.894531 212.660156 " fill-opacity="1" fill-rule="nonzero"/><path fill="#d2d9db" d="M 426.148438 181.777344 C 425.15625 181.941406 424.167969 182.117188 423.175781 182.285156 C 424.167969 182.113281 425.15625 181.941406 426.148438 181.777344 " fill-opacity="1" fill-rule="nonzero"/><path fill="#d2d9db" d="M 379.949219 565.40625 C 378.960938 565.574219 377.976562 565.742188 376.988281 565.910156 C 377.976562 565.742188 378.960938 565.574219 379.949219 565.40625 " fill-opacity="1" fill-rule="nonzero"/><path fill="#efeac8" d="M 468.269531 88.230469 C 468.585938 90.238281 468.90625 92.238281 469.230469 94.242188 C 468.910156 92.238281 468.585938 90.238281 468.269531 88.230469 " fill-opacity="1" fill-rule="nonzero"/><path fill="#f0eac7" d="M 216.019531 113.421875 C 215.785156 111.390625 215.558594 109.363281 215.328125 107.335938 C 215.5625 109.363281 215.789062 111.390625 216.019531 113.421875 " fill-opacity="1" fill-rule="nonzero"/><path fill="#f0eac7" d="M 244.375 105.246094 C 244.628906 107.273438 244.882812 109.304688 245.136719 111.328125 C 244.882812 109.300781 244.628906 107.273438 244.375 105.246094 " fill-opacity="1" fill-rule="nonzero"/><path fill="#bababa" d="M 158.195312 382.589844 C 144.566406 382.566406 134.761719 372.8125 134.765625 359.285156 C 134.765625 346.03125 145.089844 335.367188 157.953125 335.335938 C 171.328125 335.3125 181.984375 346.152344 182.054688 359.582031 C 182.113281 371.21875 171.652344 383.710938 158.195312 382.589844 " fill-opacity="1" fill-rule="nonzero"/><path fill="#bad0b4" d="M 549.675781 125.410156 C 549.929688 127.078125 550.183594 128.75 550.4375 130.417969 C 550.183594 128.75 549.929688 127.078125 549.675781 125.410156 " fill-opacity="1" fill-rule="nonzero"/><path fill="#d2d9db" d="M 415.875 286.949219 C 417.195312 286.769531 418.511719 286.585938 419.828125 286.40625 C 418.507812 286.589844 417.195312 286.769531 415.875 286.949219 " fill-opacity="1" fill-rule="nonzero"/><path fill="#d2d9db" d="M 445.015625 209.632812 C 445.988281 209.464844 446.960938 209.300781 447.933594 209.132812 C 446.960938 209.300781 445.988281 209.46875 445.015625 209.632812 " fill-opacity="1" fill-rule="nonzero"/><path fill="#d2d9db" d="M 463.269531 178.746094 C 462.292969 178.914062 461.316406 179.082031 460.339844 179.246094 C 461.316406 179.078125 462.292969 178.914062 463.269531 178.746094 " fill-opacity="1" fill-rule="nonzero"/><path fill="#ffffff" d="M 284.476562 250.839844 C 284.859375 258.191406 284.859375 258.195312 277.425781 258.769531 C 270.59375 259.296875 263.765625 259.921875 256.925781 260.289062 C 253.878906 260.449219 252.984375 261.578125 253.308594 264.625 C 254.152344 272.601562 254.53125 280.628906 255.40625 288.597656 C 255.785156 292.019531 254.558594 292.96875 251.375 293.042969 C 247.203125 293.136719 243.03125 293.546875 238.890625 294.042969 C 236.1875 294.367188 235.039062 293.679688 234.875 290.730469 C 234.46875 283.222656 233.6875 275.738281 233.113281 268.238281 C 232.671875 262.492188 232.707031 262.445312 227.199219 262.859375 C 219.867188 263.417969 212.515625 263.8125 205.230469 264.742188 C 201.339844 265.238281 200.226562 263.949219 200.1875 260.308594 C 200.140625 256.308594 199.773438 252.289062 199.21875 248.320312 C 198.785156 245.257812 199.761719 244.199219 202.855469 244.019531 C 211.027344 243.539062 219.175781 242.632812 227.347656 242.148438 C 230.171875 241.980469 230.953125 241.167969 230.636719 238.257812 C 229.753906 230.121094 229.382812 221.929688 228.5 213.789062 C 228.160156 210.671875 228.996094 209.65625 232.117188 209.609375 C 236.453125 209.539062 240.800781 209.152344 245.105469 208.574219 C 248.316406 208.140625 249.074219 209.449219 249.25 212.378906 C 249.710938 220.214844 250.6875 228.027344 251.015625 235.871094 C 251.167969 239.546875 252.515625 240.261719 255.859375 239.898438 C 263.5 239.070312 271.1875 238.699219 278.828125 237.878906 C 282.109375 237.527344 283.796875 238.089844 283.691406 241.855469 C 283.605469 244.839844 284.191406 247.84375 284.476562 250.839844 " fill-opacity="1" fill-rule="nonzero"/></svg>